<svg width="185" height="89" xmlns="http://www.w3.org/2000/svg"><path d="M3.256 86.534c-7.12-4.848-.9-14.02 2.932-18.808 4.957-6.193 11.128-11.146 18.18-14.76.824-.422 1.826.05 1.973.951.172 1.052-.728 1.905-1.566 2.334C16.86 60.307 9.787 66.646 5.27 74.349c-1.241 2.116-2.404 4.782-1.202 7.175.743 1.479 2.167 2.353 3.704 2.845 3.709 1.189 7.802.348 11.494-.45 7.849-1.696 15.435-4.746 22.296-8.914 3.514-2.134 6.867-4.548 9.964-7.253 2.983-2.607 6.248-5.528 7.724-9.305 3.187-8.158-5.041-14.655-11.453-17.8-7.455-3.655-15.655-5.336-23.398-8.235-6.407-2.4-15.08-6.483-11.705-14.837 2.597-6.428 8.686-11.522 14.801-14.436C33.58.241 41.28-1.038 47.828.984c3.195.986 5.698 3.387 5.534 6.92-.172 3.707-2.927 6.887-5.44 9.364-1.792 1.765-3.927-.375-2.138-2.138 1.6-1.576 3.585-3.558 3.973-5.882.39-2.332-1.27-3.9-3.278-4.67-3.807-1.458-8.508-1.15-12.413-.298-3.868.842-7.539 2.558-10.715 4.912-3.143 2.331-7.114 6.197-7.812 10.226-.698 4.027 3.522 6.403 6.587 7.829 3.863 1.796 7.931 3.105 11.993 4.365 7.684 2.383 15.87 4.6 22.29 9.682 5.973 4.728 9.091 12.004 5.381 19.156-3.567 6.877-10.868 12.22-17.243 16.324a77.822 77.822 0 0 1-21.798 9.697c-5.86 1.581-13.973 3.823-19.493.063zm70.96-27.157c-3.502 1.714-6.558-.238-6.059-4.171.5-3.934 2.965-7.733 6.223-9.954 2.83-1.93 7.758-2.532 9.076 1.513.189.58-.012 1.212-.393 1.74.095.212.15.47.14.793-.06 1.81-.567 5.537 1.164 6.823.953.708 2.297.123 3.22-.351 2.626-1.349 5.08-3.763 6.445-6.38 1.075-2.06 4.027-1.011 2.819 1.304-1.999 3.83-6.165 7.658-10.325 8.946-1.799.556-3.856.557-5.24-.896-1.014-1.064-1.446-2.497-1.614-4.009-1.522 1.892-3.277 3.576-5.455 4.642zm-2.532-4.675c-.373 3.575 3.395.558 4.478-.562 1.513-1.564 2.688-3.423 3.866-5.243.02-.03.043-.055.063-.083-1.016-2.773-4.137-1.209-5.63.306-1.445 1.464-2.56 3.512-2.777 5.582zm40.651-4.929c.557-2.036 3.976-2.12 3.284.408-1.352 4.946-4.23 11.235-9.554 12.824-2.596.775-5.354.175-6.085-2.728-.566-2.252-.141-4.807.556-7.126-1.293.11-2.588.152-3.889.098-1.463-.06-3.283-.067-4.573-.886-2.164-1.375-1.863-4.547-1.281-6.68.612-2.245 2.872-5.276 5.624-4.586 2.844.713 1.133 6.171.662 8.037-.053.21-.132.417-.23.616 2.047.233 4.332-.08 6.228-.35.601-.086.993.061 1.216.337.406.276.587.811.276 1.634-.767 2.024-1.525 4.557-1.194 6.756.385 2.552 3.082 1.63 4.484.416 2.34-2.025 3.682-5.866 4.476-8.77zm-18.369-1.817c.198-.878.36-1.794.382-2.677-.243.704-.391 1.782-.4 2.005a4.77 4.77 0 0 0 .018.672zM117 59.377c-3.503 1.714-6.56-.238-6.06-4.171.5-3.934 2.966-7.733 6.223-9.954 2.831-1.93 7.758-2.532 9.076 1.513.19.58-.011 1.212-.393 1.74.095.212.15.47.14.793-.06 1.81-.567 5.537 1.164 6.823.953.708 2.298.123 3.22-.351 2.626-1.349 5.08-3.763 6.445-6.38 1.075-2.06 4.027-1.011 2.82 1.304-2 3.83-6.165 7.658-10.326 8.946-1.799.556-3.855.557-5.24-.896-1.014-1.064-1.446-2.497-1.614-4.009-1.522 1.892-3.277 3.576-5.455 4.642zm-2.533-4.675c-.373 3.575 3.395.558 4.478-.562 1.514-1.564 2.688-3.423 3.866-5.243.02-.03.043-.055.063-.083-1.016-2.773-4.137-1.209-5.63.306-1.445 1.464-2.56 3.512-2.777 5.582zm67.082 2.498c1.824-1.72 3.97.41 2.138 2.138-4.424 4.173-9.538 7.983-15.484 9.619-6.52 1.794-14.141.196-16.945-6.61-.713-1.732-.961-3.545-1.103-5.399-.07-.906.074-6.614-.729-6.723-.79-.106-2.875 2.226-3.39 2.73a22.655 22.655 0 0 0-2.455 2.827c-1.598 2.195-2.756 4.608-3.563 7.195-.378 1.21-3.424 2.547-3.412.487.056-10.357.048-20.707.799-31.042.142-1.956 3.709-3.011 3.527-.504-.567 7.803-.693 15.612-.748 23.427a28.502 28.502 0 0 1 6.931-7.242c1.67-1.217 4.477-2.704 5.786-.177.997 1.923.599 4.667.734 6.78.228 3.573.849 6.947 3.784 9.318 7.647 6.177 18.538-1.55 24.13-6.824z" fill="#B62C16" fill-rule="nonzero"/></svg>