<svg width="206" height="96" xmlns="http://www.w3.org/2000/svg"><path d="M113.269 1.179c.099 13.57-1.087 27.219-5.083 40.244-3.136 10.224-8.147 20-15.36 27.956-6.45 7.118-15.488 13.527-25.412 13.886-4.587.165-9.568-1.11-12.929-4.412-2.377-2.336-2.979-5.92-3.002-9.114-.019-2.562.244-5.157.714-7.721-4.695 6.121-9.946 11.815-15.746 16.905a112.547 112.547 0 0 1-10.728 8.349c-3.576 2.443-7.358 4.956-11.376 6.61-3.672 1.511-8.21 2.145-11.331-.857C.255 90.37-.138 86.173.066 82.562c.449-7.98 3.868-15.829 7.483-22.833 4.315-8.36 9.645-16.2 15.934-23.201 1.692-1.883 3.8.287 2.138 2.138-6.23 6.935-11.527 14.837-15.66 23.192-3.15 6.37-6.238 13.57-6.395 20.792-.072 3.342.747 7.772 4.509 8.793 3.744 1.017 7.859-1.71 10.91-3.524 14.404-8.559 26.43-20.635 35.647-34.572 1.02-1.541 3.845-1.414 3.052.855-1.733 4.956-3.024 10.622-2.587 15.882.288 3.474 1.556 5.917 4.656 7.677 4.041 2.295 8.842 2.391 13.254 1.23 8.73-2.297 16.038-9.007 21.244-16.133 12.582-17.225 15.63-39.49 15.478-60.297-.008-1.009.584-1.976 1.566-2.334.742-.27 1.966-.059 1.974.952zm27.97 52.958c1.35-1.826 4.393-.825 2.819 1.304-4.104 5.548-10.349 9.013-17.217 8.953-.103.193-.206.385-.315.572-1.775 3.045-5.191 6.221-9.006 5.837-3.689-.37-5.515-4.16-4.928-7.547.313-1.807 1.094-3.676 2.062-5.421-.021-.104-.043-.208-.058-.314-.495-3.377 2.6-7.558 5.576-8.886 3.55-1.586 6.79.593 7.98 4.033.907 2.621.82 5.54.07 8.251 5.03-.162 10.056-2.781 13.016-6.782zm-20.295 12.538c1.061-.604 1.905-1.524 2.554-2.591-2.348-.425-5.045-1.348-6.863-2.968-.145.38-.279.763-.387 1.144-.863 3.046 1.53 6.216 4.696 4.415zm4.18-7.416c.295-2.332.026-6.508-2.678-7.484-1.072-.386-2.26.265-3.117 1.264.082.023.164.051.246.091.857.426.842 1.617.319 2.31a29.693 29.693 0 0 0-1.275 1.833c.457.662 1.157 1.199 1.798 1.603a13.177 13.177 0 0 0 4.454 1.77c.11-.469.196-.934.253-1.387zm35.311-4.74c.558-2.036 3.976-2.12 3.284.408-1.352 4.947-4.23 11.235-9.554 12.824-2.596.775-5.354.176-6.084-2.727-.567-2.252-.142-4.807.555-7.126-1.292.109-2.588.151-3.888.098-1.464-.06-3.284-.068-4.574-.887-2.164-1.374-1.863-4.547-1.281-6.68.612-2.245 2.872-5.275 5.624-4.586 2.844.714 1.133 6.172.663 8.038-.053.21-.133.416-.23.616 2.046.232 4.331-.08 6.227-.35.602-.086.993.061 1.217.336.406.277.587.812.275 1.634-.766 2.025-1.525 4.558-1.194 6.756.385 2.552 3.082 1.63 4.484.417 2.34-2.025 3.682-5.866 4.476-8.77zm-18.368-1.817c.198-.877.359-1.793.381-2.677-.243.705-.391 1.783-.4 2.006-.009.248-.002.468.019.671zm59.61 10.11c.824-1.897 4.333-2.008 3.285.408-2.5 5.76-6.306 11.074-12.133 13.788-7.763 3.617-17.22.968-23.101-4.931-1.366-1.37-2.486-2.938-3.417-4.63-.52-.944-1.252-2.117-1.443-3.286a31.742 31.742 0 0 0-1.622 7.186c-.184 1.684-2.903 2.7-3.445 1.313-.27-.227-.422-.613-.35-1.205a266.674 266.674 0 0 0 1.979-33.846c-.006-1.009.583-1.975 1.566-2.333.741-.27 1.968-.06 1.974.95.042 7.296-.2 14.586-.736 21.857 1.464-2.719 3.752-6.372 6.676-6.197 3.595.216 3.208 4.879 1.953 7.108-.85 1.51-2.125 2.668-3.508 3.686-.167.123-.415.331-.657.5.342.712.832 1.908.93 2.086 1.97 3.577 5.113 6.315 8.8 8.04 3.81 1.781 8.273 2.44 12.325 1.09 5.374-1.793 8.758-6.588 10.925-11.584zm-35.566-1.594c.614-.5 1.34-.904 1.94-1.357.854-.643 1.732-1.383 2.06-2.439.143-.458.362-1.132-.028-1.535-.47-.485-.057-.33-.592 0-1.128.693-2.175 3.064-2.802 4.207-.203.37-.393.746-.578 1.124z" fill="#B62C16" fill-rule="nonzero"/></svg>