<svg width="129" height="50" xmlns="http://www.w3.org/2000/svg"><path d="M0 9.678c0-1.53.615-2.624 1.846-3.28 1.367-.766 2.871-1.313 4.512-1.64 3.144-.766 6.562-1.422 10.254-1.97A280.763 280.763 0 0 1 39.992.82C48.606.273 58.86 0 70.755 0c4.649 0 11.895.11 21.74.328 8.75.219 15.176.438 19.278.656 6.289.219 10.938.656 13.946 1.313 1.367.328 2.256.546 2.666.656.41.218.615.547.615.984-.137.437-.547.656-1.23.656-2.598-.219-4.854-.355-6.768-.41a171.347 171.347 0 0 0-4.717-.082H86.137L58.86 4.43c-9.57.11-19.21.602-28.917 1.477-8.067.546-15.313 1.476-21.74 2.788-1.367.219-2.392.438-3.076.656l-.205.328c0 .22.137.329.41.329l4.717 1.148c6.7 1.203 16.886 2.789 30.558 4.757l7.383 1.148c15.177 2.078 28.029 4.156 38.557 6.234 5.88.984 11.621 2.46 17.227 4.43 3.008 1.093 5.127 2.022 6.358 2.788 1.367.765 2.05 1.914 2.05 3.445-.273 1.203-.956 2.023-2.05 2.46a7.674 7.674 0 0 1-3.076.985c-2.461.218-4.307.328-5.538.328-4.512 0-7.93-.055-10.254-.164l-7.998-.328c-8.888-.329-16.818-.438-23.79-.329-5.743.22-11.486.711-17.228 1.477-.137 0-.718.055-1.743.164-1.026.11-1.812.492-2.359 1.148.274.547.752 1.04 1.436 1.477.684.437 1.162.71 1.435.82a67.518 67.518 0 0 0 8.204 4.1c1.504.657 2.53 1.313 3.076 1.97.41.327.616.71.616 1.148.136.109.136.246 0 .41-.137.164-.342.246-.616.246-.547.218-1.299.164-2.256-.164-5.195-1.75-9.57-4.047-13.125-6.89-1.368-.875-2.051-2.023-2.051-3.445 0-1.968 1.025-3.335 3.076-4.101.41-.219.957-.41 1.64-.574.685-.164 1.231-.3 1.642-.41 6.562-.984 14.287-1.477 23.174-1.477 5.743 0 11.349.164 16.818.493l17.637.984 3.076.164c1.915 0 3.692-.164 5.333-.492.41 0 .888-.11 1.435-.328.684-.22.82-.493.41-.82-.957-.657-2.529-1.422-4.716-2.297-4.512-1.75-9.913-3.172-16.202-4.265-6.016-1.313-14.835-2.789-26.457-4.43l-51.066-7.381a21.403 21.403 0 0 1-2.974-.492 29.562 29.562 0 0 0-2.359-.493c-.547 0-.991-.054-1.333-.164-.342-.109-.65-.218-.923-.328C1.3 12.303.273 11.483 0 10.5v-.82z" fill="#B62C16" fill-rule="nonzero"/></svg>