<svg width="88" height="7" xmlns="http://www.w3.org/2000/svg"><path d="M.556 4.318c.223-.848.615-1.273 1.174-1.273.223-.12.558-.181 1.005-.181C9.777 2.015 15.87 1.59 21.011 1.59L47.5.864h1.509C60.41.62 68.85.5 74.327.5h11.4c.336 0 .615.06.839.182.559 0 .838.242.838.727.224.727.056 1.273-.503 1.636l-.838.364a7.89 7.89 0 0 0-1.677.182 7.19 7.19 0 0 1-1.509.182c-8.383.606-17.66 1.03-27.831 1.272l-11.569.182c-2.57.121-6.427.182-11.569.182-1.788.121-4.47.182-8.047.182h-8.048L4.58 6.318c-.447.121-1.174.182-2.18.182h-.503c-.559 0-.95-.152-1.173-.455C.5 5.742.444 5.167.556 4.318z" fill="#B62C16" fill-rule="nonzero"/></svg>