<svg width="300" height="96" xmlns="http://www.w3.org/2000/svg"><path d="M59 44.9h-.2l-.1.5.2-.5zm0 0l-.3.5-.1.6.3-1.1zm-9.5 28.4l-.5 1-.6 1v.1c0 .7-.4 1.1-.8 1.6l-.3.6-.5.5-.2.2v.2l-2.3 2.4-.8.9c-.6.6-1.2 1.1-2 1.6l-.8.6-1 .8-.3.2-1.5 1.1-1.1.8c-1.1.9-2.3 1.5-3.5 2l-1.3.8a54 54 0 01-4 2l-.4.2-1 .3-1.4.7c-.6.4-1.4.6-2.2.8l-.5.1-.4.1c-1.2.7-2.5 1-3.8 1.2l-.8.2a1 1 0 01-.6.2h-.2c-.7-.2-1.5 0-2.2.4h-3.2c-1 .1-1.8 0-2.6-.2L7 95.5 5.8 95c-.3-.1-.6-.3-1-.3l-.2.1a30.3 30.3 0 00-.9-.8l-.8-.5a12.4 12.4 0 01-1-1 7.3 7.3 0 01-1.4-2.3c-.8-1.7-.5-3.4 0-5a26 26 0 011.8-3.6l1.4-2 .3-.4.8-1.1.8-1a3 3 0 011-.9l.8-.8.8-.8.4-.5.4-.4.8-.8a16.6 16.6 0 013.4-3l.8-.5.2-.2a19 19 0 012.2-1.8c.5-.2.8-.6 1.2-1l.2-.2c.2-.3.5-.5.9-.6l.3-.2c.7-.5 1.4-1 2.1-1.7l1.3-.7 1-.7.3-.1.7-.5 2.5-1.5h.2l.4-.4.8-.6a22.5 22.5 0 012.3-1.3l.4-.2.4-.3.6-.3.6-.4-.3-.2c-.2-.6-.7-.7-1-.9a18.6 18.6 0 01-3-1.6 1.7 1.7 0 01-.6 0 8 8 0 01-.8-.5l-1.4-1-1.3-.4a18.8 18.8 0 01-1.5-.6l-.2-.2-1.1-.4-1.1-.6-.4-.2a7 7 0 00-2-1c-.6-.1-1-.3-1.6-.6l-.6-.3-1.4-.7-.4-.3-.3-.1-1-.3a5 5 0 01-.4-.1 1 1 0 01-.5-.3l-1-.6a15.2 15.2 0 01-1.7-1l-.2-.1-1.5-.8-1.2-.7a3 3 0 01-.9-.8l-.4-.5c-1.2-.5-1.8-1.5-2.5-2.4l-.6-.9c-.6-.9-.9-2-1-3.2V35c-.2-1-.3-2 0-2.8v-.3l-.3-.5.6-.3v-.5l.2-.7.2-.4.3-.7.6-1.2.3-.4.8-1.3c.5-.5.9-1.1 1.2-1.7.9-1.5 2-2.9 3.2-4.3.5-.3.7-.7 1-1l.6-.9.7-.3 1-1c.3-.5.6-1 1-1.3l.6-.4.9-.7c1-1.1 2.3-2 3.5-3l.8-.6 1-.9.7-.6.7-.4h.2c.1-.2.3-.2.4-.3l.4-.3c.8-.7 1.6-1.3 2.5-1.8l1.4-.8 1.5-.9L28 4 30 3a48.2 48.2 0 013.3-1.4l1.4-.5c1-.4 1.8-.6 2.6-.5h.4l.3-.2c.5-.4 1-.6 1.5-.5.6.2 1.2.2 1.9.1h1.9c.7 0 1.5.3 2.2.6l.4.1c.9.4 1.7.8 2.2 1.7.3 0 .6.2.7.4.6.5.7 1.2.9 2l.1.5c.3 1.4.3 2.6 0 3.8 0 .6-.5 1-.8 1.5l-.6.5-.4-.2-.5-.2a4.5 4.5 0 01-1.1-.6V10c-.1-.6 0-1.3.1-1.9.1-.6.3-1.3.1-2-.1-.3-.6-.7-1-1.1-.4-.3-.9-.6-1.2-.6h-.2L44 4l-.4-.1-.9-.2h-.3l-.5-.4-2.4.3-1.6.2a1 1 0 01-.3.3c-.5.3-1 .3-1.6.4-.6.1-1.1.2-1.7.5l-1 .4H33l-.1.1-.6.3-.6.3-1 .5-.9.5-2.4 1.3-1.4.8a56.3 56.3 0 01-2.2 1.5l-.6.4-.3.2-.4.3c-.2.3-.3.4-.6.4h-.3v.3l-.2.2-.5.4-2.1 1.4-.8.5c-.4.2-.7.5-.8.8a23.1 23.1 0 01-4.2 3.8c-.4.3-.7.8-1 1.3 0 .2-.2.4-.3.5L10 23l-.7 1-.8 1-.8 1-.4.5v.2a6 6 0 01-.5.4l-.4.5-.5 1-.6 1.3c-.6.8-.8 1.7-.9 2.6l-.2.7c-.2.7-.4 1.5 0 2.2.3 1 .6 2 1.3 2.8.1.2.2.2.3.2l.3.3.6.6.4.4 1.6 1 1.5 1.2 1.1.2c.3.1.5.3.7.6.8 0 1.4.5 1.9 1.1.8 0 1.3.3 1.9.6l.8.4.6.3.6.3c.7.4 1.3.8 1.9 1l.6.3h.4l2.4 1.2 1.5.7a31.3 31.3 0 01.8.4c.6.6 1.3.8 2 1a47.6 47.6 0 012.3 1.1l1 .6c.8.3 1.6.7 2.3 1.3.9 0 1.5.5 2 1l.2.2.2.1c.6.5 1 .3 1.5 0l.6-.2 1-.5.5-.3 2.4-1.3 1.5-.8 3.4-1.5 2.2-.8.7-.4.8-.5 1.8-.6 3-1.2 1.2-.5c.3 0 .6-.2.9-.4h.1c.5-.3.9-.4 1.4-.4l.9-.5 1-.4c.5 0 .8-.2 1.1-.3.4-.1.7 0 1.1.1l.3.2c.3.5.4.9.4 1.3s-.1.8-.3 1.1c-.3.4-.6.5-.8.7l-.3.1c-.4 0-.6 0-.9.3-.2.2-.5.4-1 .4h-.2l-3 1.1-.8.4c-.5.2-1 .3-1.4.6a53.8 53.8 0 00-4.4 1.8L46 53.5c-.7.2-1.2.6-1.7 1l-.3.2-3 1.4a42.5 42.5 0 01-1 .7l.7.5.4.2c.9.6 1.9 1.2 2.6 2.1l1 .8 1.5 1c1 1 1.8 2.3 2.6 3.4l.3 1c0 .1 0 .3.2.5.3.5.5 1 .6 1.6l.2.7c.1.6 0 1.2-.1 1.8l-.1.5-.1.9v.8c0 .2 0 .5-.3.7zm-10.3 7.4l.3-.2.9-.6 1.1-.9c.3-.2.6-.4.7-.7.1-.4.4-.6.6-.9l.3-.3.7-1 2-2.8c0-.4 0-.8.2-1.2.2-.5.5-1 .5-1.5l-.3-3.3a64 64 0 01-.3-.5c-.5-.8-1-1.6-1.7-2.3l-.7-.9-.5-.5-2-1.5c-.3 0-.6-.2-.8-.4a56 56 0 00-3.5-2.2l-.5-.3a81.5 81.5 0 01-3.3 1.8l-.3.2-.7.5-1.6 1c-1 .4-2 1-3 1.8l-.3.3-1 .5-.3.1v.2l-.8.5-.5.3-1 .7-1 .7-1.5 1.1-1.7 1.2-2.2 1.9-1.6 1.3c-1.5 1.2-3 2.5-4.4 3.9l-.4.3c-.4.3-.8.6-1 1-.5.8-1 1.4-1.6 2-.5.5-1 1-1.2 1.5l-.1.2a4 4 0 01-.7.7l-.3.3c-.3 1-.7 1.8-1.3 2.6l-.1.3A5.9 5.9 0 004 89c.2.6.2 1.1 1 1.6l.2.4.2.2H5.8l1.4.7.5.2.6.2 1.7.2 5.1-.1c.8 0 1.5-.3 2.2-.5a17.8 17.8 0 012-.5h.5c.4-.3.8-.4 1.2-.5.5-.1 1-.2 1.4-.7h.5c.9-.2 1.8-.4 2.6-.8l.7-.5a6 6 0 012-1c.2 0 .5-.3.8-.5.3-.3.7-.6 1.2-.7 1.4-.4 2.6-1.3 3.8-2.1l1.4-1 .4-.3 3.4-2.5zm46.2-18H85l-.1.3-.3.3-.4.2-.7.4-2 .4-1-.4a7 7 0 01-1.5-2.3c-.3-.7-.4-1.5-.1-2.3v-.4c0-1.1 0-2 .6-3v-.2l.1-.6.7-2.3.3-1v-.5l.3-.5.3-.5.4-1.2.7-1.8c.2-.3.1-.7.1-1.1v-1l.1-.8v-.2l-1-1.1c-.6 1-1.2 2-2 2.9l-.8 1.6-.7.8-.6.6c-.6 1.2-1.5 2-2.5 3-.8.8-2 1.4-3 1.5-.4 0-.9 0-1.3-.2-.4-.1-.8-.4-1-.8l-.5-.6-.5-.9c-.2-.3-.2-.7-.2-1a3 3 0 01-.8 1.2l-.5.6-.3.6-.3.6c-.2.4-.5.6-1 .8 0 .3-.2.6-.3.8l-.6.5c0 .3-.1.6-.3.8-.2.4-.6.6-1 .9l-.5.2-.8.5-.7.3-.2-.1H61c-.6-.2-1.3-.4-2-1.1-1-1-1-2-1-3.1v-.6c-.1-.8 0-1.5.2-2.2l.2-.8c0-.7.3-1.3.6-2l.4-.6c0-.4.2-.8.5-1.2l.3-.7c.4-1 .9-1.8 1.5-2.7l1-1.5.4-.4.5-.6.8-.9 1.5-.5 1-.4.5-.2.4.4.8.6c1 .7 2 1.4 2.1 2.9 0 .6.3 1 .5 1.4l.2.3.2.4c.2 1 .2 2.1.2 3.2l.1 2.4.4-.2 1.1-.8 1-1.3.7-.7.3-.6.8-1.2c.8-.8 1.4-1.8 1.9-2.8l.2-.5.7-1.1-.2-.3a8 8 0 01-.5-1c-.4-.7-.8-1.5-1-2.4 0-.6 0-1.3.2-1.8l.7-2.6.3-.8.7-1.3.3-.5.8-.9.8-.8c.4-.3.8-.4 1.3-.6H85l.2.3c0 .2.3.4.4.5l.3.3c.3.5.5.8.5 1.1L86 31l-.2.9v.3l-.2.7-.3 1.7-.3.9c0 .2 0 .5-.2.7-.3.4-.4.8-.6 1.3 0 .4-.2.7-.3 1a3 3 0 01-.5.8l-.3.5v.3l1 .7.7 1c0 .2 0 .4.2.5 1 1.5.9 2.9.7 4.2v.6l-.6 2-.3 1.2-.5 1.5-.5 1.6-.4.8c-.6 1.2-.8 2.5-1 3.8l-.3 1.4.1 1.4.6-.3c.3-.1.7-.2 1-.7 0-.3.2-.5.5-.7l.7-.5 1.3-1.3 1.1-1.3a16.9 16.9 0 011.8-2l.3-.3 1.2-1.5 1.5-1.6.5-.6.8-1 .7-1 .4-.4.3-.3.6-.6.6-.8.5-.8.4-.6v-.2c.3-.4.4-.8.8-1a2 2 0 011-.6h.5l.2.4.3.2.3.4.3.5-.1.8a11.6 11.6 0 01-1.3 2.4l-.2.3c0 .2-.1.2-.2.3a7 7 0 01-2 2.3c0 .2 0 .3-.2.5v.1c-.2.3-.3.6-.6.7a1 1 0 01-.4.1 4 4 0 01-1.3 1.8l-.7.8a7 7 0 01-.7.7l-.5.6-1.5 1.9-1.7 1.8a2 2 0 01-.5.4l-.5.7-.2.2c-.1 0-.2 0-.2.2-.6.9-1.4 1.4-2.3 2zm-18-19c0-.3-.2-.5-.3-.7l-.3-.7-1 .6a281.3 281.3 0 01-3.3 5.2l-.5 1.2-.1.2c.1.7 0 1.4-.2 2l-.2.8a3 3 0 000 .1c-.2.5-.2 1 0 1.4l.9-1c.7-.8 1.2-1.7 1.8-2.6l.7-1c0-.2.1-.3.3-.5l.2-.3v-.2c.4-.4.6-.8.8-1.2a12.5 12.5 0 01.9-1.5l.4-.6c0-.2 0-.4-.2-.7v-.5zm16-11.3c.2-.3.3-.5.3-.8-.1.2.3-.6-.5.2L82 33c-1.2 1-1.4 2.5-1.1 3.7l.2-.2.3-.4 2-3.7zm25 21c-.8-.2-1.6-.5-2-1.3-.2-.1-.2-.3-.3-.4a4 4 0 01-.8-1.3 2 2 0 010-1.3v-.2-.4l-1.5 1.6-1.6 1.5-1.1.8a4 4 0 01-1 .5l-.5.3h-.1l-.2.1c-.7.6-1.7.7-2.6.4-.8-.3-1.3-1-1.5-2l-.1-.3-.3-.7-.2-.4.2-.2c.3-.3.2-.7.1-1.1 0-.5 0-1 .2-1.5 0-.3.2-.6.5-.9v-.5-.2c0-.9.5-1.4 1-2 .3-.2.5-.4.6-.7a6 6 0 011.7-2l.7-.7c.6-.5 1.2-.8 1.8-1l.4-.3a2.6 2.6 0 012.3-.2h.3l.3-.3.3.3.3.2c.6.5 1.1 1 1.4 1.8.5-.2 1-.2 1.5.1.4.3.7.7.8 1.2v.5c.3 1 .4 2-.3 2.9V47a9 9 0 01-.1 1.6v.3c.2.3.3.6.3 1v.2l.3.2.6-.1.9-.5.9-.5 1-.8.3-.4.6-.5c.5-.3 1-.7 1.4-1.2l1.8-2L118 43l.8-.9a6 6 0 011.8-1.7l.2-.3.2-.4.3-.4.5.2.4.2.3-.1.3.5c.4 1 .2 1.8-.4 2.7-.5.8-1 1.5-1.6 2.1l-1 1.1c-.5.8-1.3 1.6-2 2.3l-1.2 1.2-.6.6c-.4.4-.7.8-1.1 1l-.9.6c-.4.5-.9.9-1.5 1.1l-1.1.4-1.2.5h-1c-.2 0-.4 0-.6-.2h-.2zm-4.4-9v-1a4 4 0 00-.6-1h-.2l-.6.3-.6.5c-1 .7-1.9 1.4-2.4 2.6v.1l-.4.7c-.2.4-.5.8-.5 1.4l-.4.9a1.2 1.2 0 00-.1 1.3l.4-.1 1-.7 1-.7c0-.3.2-.6.4-.8l.2-.1c.9-.3 1.3-1 1.7-1.8l.1-.2.2-.3c.3-.3.6-.5.8-1zm40-30.1v.2c0 .6-.1 1-.4 1.3-.4.4-.5.9-.7 1.4l-.5 1.1-.5 1c-.2.6-.4 1.1-.8 1.6l-.2.5c-.3.5-.6 1-1.2 1.3v.4l-.3.7v.1l-.2.3-.2.4-.7 1.2-.8 1.2-2.1 2.3-.7.7c-.4.8-.8 1.2-1.2 1.6l-.6.6a9 9 0 01-1.6 2l-1.2 1.1v.1l-.3.3-.5.7-1 .7-.3.1-.3.4-.2.3-.5.7-.3.6h-.2c-.8.3-1.3.9-1.8 1.4l-1 .8c-.4.2-.5.6-.6.9l-.2.5-.1.2v.1l-.1.3-.2.6-.3 1c-.3.4-.3.8-.3 1.2 0 .4 0 .8-.2 1.2l-.6 2.1-.1.7.1-.3c1.5-2.3 3-4.6 5.2-6.4 0-.2.1-.5.3-.7l.8-.6 1.5-1.3.4-.4.6-.5c.8-.7 1.6-1.3 2.7-1.1.7 0 1.1.1 1.4.4.4.2.6.5.8 1 .7 1.8.8 3.4 0 5l-.1.8-.1.7c0 1 0 1.3-.4 1.8v.5l-.1.8c-.2.6-.1 1.1 0 1.7v1.1l.1.7c.7-.2 1.3-.5 1.8-1l2.2-2 .7-.7.8-.7c.5-.6 1.1-1.2 2-1.6v-.1c.6-1 1.4-1.7 2.2-2.4l1.3-1.2.2-.5.8-.7.3-.1.6-.3.2-.1.3-.2.3.2c.5.4.9 1 1 1.5 0 .5-.2 1-.7 1.5l-.8 1-.3.4-.5.7-.5.4c-.3.2-.7.4-.8.8l-.2.5-.5.4c-.7.3-1 .8-1.5 1.4l-1.2 1.3c-.4.2-.6.5-.8.7-.4.4-.8.8-1.2 1l-1.3 1a6 6 0 01-2.1 1.6l-.9.3c-1 .4-2 .7-3.1 0-.8-.3-1.2-1.1-1.6-2l-.1-.4-.1-.2a7.1 7.1 0 01-.2-3.5l.1-.9c0-.3 0-.6.2-.9l.2-1c-.2-.4 0-1 .3-1.6l.3-.6v-2.6l-1 1a18 18 0 01-1.2 1.3l-.5.5c-.4.5-.7 1-1.1 1.3l-.8.9-.8 1c-.2.5-.5.8-.8 1.1l-.5.8c0 .7-.5 1.3-1 1.8l-.4.4-.8 1.2-.2.3a78.3 78.3 0 01-1.7 3l-1.2 2.1c-.1.6-.4.9-.7 1-.3.2-.6.2-1 0a1.3 1.3 0 01-.9 0l-.1-.2c-.9-1.4-.9-3-.5-4.7v-.4c0-.4 0-.7.2-1v-.5l.3-1c0-1.3.2-2.6.7-3.7v-.2c0-.6 0-1 .2-1.4.3-.4.3-.9.4-1.3l.3-1.5c.5-.6.5-1 .6-1.4 0-.4.1-.8.3-1.1l-.2-.3v-.3c0-.5.2-1 .5-1.4l.3-.5.5-1.8.5-1.4c.3-1 .7-2.1 1.2-3v-.6l.2-.7.7-1.6.3-.5.7-1.9 1.4-3.3.7-1.6.2-.5.7-1.4 1-1.8.5-1.1a15.5 15.5 0 01.9-2l1-1.4V15c.3-.3.5-.7.6-1 .2-.6.5-1 .8-1.5l.5-.7c.4-.6.7-1.1 1.2-1.6l.8-1 .4-.7.8-1c.1-.3.4-.4.6-.5l.5-.2.1-.2c.5-.7 1.1-1 1.8-1.3l.6-.3c1-.6 2.1-.5 3-.2.9.4 1.7 1 2.2 1.6.5.8.7 1.6.9 2.4 0 1.8-.3 3.5-1 5.1 0 .2-.2.3-.3.5zm-17.2 19.2l1.8-1.5.5-.7 1.3-1.5c.7-.7 1.4-1.4 2-2.3l1.7-2 .2-.3c.1-.4.3-.7.7-1l.5-.7c.3-.7.7-1.3 1.5-1.6v-.2c.3-1.1.9-2.1 1.5-3.2l.6-1.2.5-1.2a35 35 0 011-2.1c.1-.4.4-.8.4-1.3.2-1 .5-2.1 1-3.2.1-.4-.1-.8-.3-1.1l-.2-.4h-.4l-1.1.2c-.8.5-1.5 1.1-2 1.8l-.8 1c-.8 1-1.5 2-2 3.1l-.7 1c-.2.2-.4.4-.5.8-.1.4-.4.8-.8 1.3l-.4.5a9.8 9.8 0 01-.4 1l-.9 1.6-.1.2-.7 1.5a11.6 11.6 0 01-1.6 3c-.1 1.1-.6 2-1.1 2.7 0 .4 0 .7-.2 1-.8 1-1 2.1-1.3 3.2v.3l-.1.3c0 .4-.2.7-.3 1-.7.6-.8 1.4-1 2.2l.6-.7.6-.7.1-.2.4-.6zm98 32c-.3 1.4-1 2.5-1.7 3.7l-.7 1.2c-.3.8-1 1.4-1.5 2l-1 1.2c-.6.7-1.3 1.5-2.2 1.9-.5.7-1.1 1.1-1.7 1.5l-.8.6-.4.3-.7.5-1 .8-1.3 1.2-.5.3c-.7.5-1.6 1-2.4 1.3l-.6.3-.4.3-1 .7-1 .5c-.8.5-1.6.9-2.6 1-.3 0-.6.4-.9.6-.6.4-2.1.7-3 .7-.8.8-1.7.8-2.7.7l-.6-.1c-1.1-.2-2-.6-2.7-1.7-.7-1-.9-2-.6-3l.1-.6.8-2.2.8-1.3.5-.5.7-1a42.5 42.5 0 012.4-3l1.1-1.3.7-.7.9-.8a8 8 0 011.7-1.6l.8-.6c.4-1 1.1-1.5 1.8-2l.5-.4 1.6-1.5 1.3-1.1 1.4-1 1.5-1a16 16 0 012-1.7l.5-.4c.4-.4 1-.7 1.5-1l1-.7v-.2l.2-.1a1 1 0 00-.5 0l-.1-.2c-.8-.5-1.6-.4-2.4-.4-.7 0-1.4 0-2.1-.2-.4-.2-.8 0-1.2 0l-.4.1-2.5.1-2 .3-3 .2h-.3l-1.8.2-1.2.2-2 .3-1.8.3-1.3.3-1.3.3-.2.3-.8 2-.3 1.2c0 1-.3 1.8-.6 2.6l-.5 1.6-.6 2.8-.6 2c.1.7-.1 1.4-.4 2-.1.4-.3.7-.3 1.1 0 1.2-.2 2.3-.4 3.5-.2.8-.4 1.7-.4 2.5-.2.7-.5 1.2-1 1.6 0 .2-.4.3-.8.2-.3 0-.6-.2-.7-.3-.5-.7-.8-1.3-.8-1.9 0-.9 0-1.7.2-2.5V77l.3-1.8V75v-.1l.2-.5v-.3l.3-.3v-.1l.4-1.9a39.3 39.3 0 01.7-3l.3-1.2c0-.7.2-1.3.3-2l.3-1.5.3-1.4c0-.2.2-.7.4-.9.4-.4.4-1 .4-1.4v-.2-.3l-.6.3c-.7.5-1.4 1-2.2 1l-1.4 1-1 .4c-.8.4-1.7.9-2.6 1l-1 .5a5 5 0 01-2 .8l-1 .3a4 4 0 01-1.5.4l-.1.1c-.5.4-1.3.5-2.1.4-.8-.2-1.4-.6-1.7-1-.3-.5-.4-.9-.3-1.2 0-.4.3-.7.6-1l.3-.3c.8-.8 1.7-1.5 2.8-2l2-.7c.6-.3 1.2-.6 2-.8l4-1.5 3.5-1a9 9 0 002.5-.6l1-.6.2-.2.1-.3c.4-.8.6-1.6.8-2.5l.5-1 .2-.2.3-1 .4-.9.1-.8c.1-.7.3-1.4.7-2l.4-1.6.2-1 .4-.9a21.6 21.6 0 01.6-1.1v-.2-.4c.1-.5.3-.7.4-.8v-.1l.2-.8c.6-.8.9-1.8 1.1-2.8a28.7 28.7 0 011.2-3.5l.4-.2c0-1 .3-1.7.8-2.4l.5-1.1v-.3l.1-.2.1-.6.2-.2c.4-1.5.9-2.9 1.5-4.2l.1-.4c.5-1 .8-2 1.1-3l.6-1.5 1-2.4.9-2.1c-.1-.2.3-2.9.6-3.4l.5-.9.6-1.2c0-.6.1-1 .4-1.3.3-.3.7-.5 1.4-.5l.5-.4.4.5c.5.6.8 1.1.8 1.6 0 .4 0 .9-.4 1.5l-.1.6v.4l-1.1 3.2-.4 1c0 .3-.2.5-.4.8l-.2.6v.3l-.1.4-.3.3-.2.6-.1.4-.6 1.8a157 157 0 01-2.3 6.2l-.2.4-.7 1.6-.1.4-.2.4a41.1 41.1 0 00-1.4 3.8l-.1.2-.2.2-.1.4c0 .6-.2 1-.5 1.6v.2l-1 2.2c0 .3-.2.5-.3.8l-.1.4-.2.7-.4 1-.2.6a16 16 0 01-.6 1.8l-1 2.9-.3.9c-.2.8-.4 1.6-1 2.3v.8a53.3 53.3 0 00-.5 2.1c.3-.1.7-.2 1-.5.3-.4.6-.6 1-.7l.3-.2.4-.1.1-.1.5-.3.4-.3c.7-.3 1.3-.8 2-1.2 1.2-.8 2.4-1.6 3.8-2.1.4-.5.8-1 1.7-1.1.2 0 .4-.3.5-.5l.8-.6.6-.4.4-.2c.5-.5 1-.9 1.7-1.3.5-.3 1.1-.7 1.6-1.2.3 0 .4-.2.6-.3l1.1-.5.4-.1.2-.3c0-.4.3-.7.6-.9l.2-.1.4-.3.5-.5.1-.2h.2v-.1l.5-.3c.8-.3 1.4-1 2-1.5l1.4-1 1.4-1.3a22.7 22.7 0 011.6-1.5l.5-.5 1.3-1.2c1.5-1.5 3-3 4.1-4.8l.3-.4 1-1.4 1.1-1.8c.6-1 1-2.2 1.4-3.4l.4-1V18c0-.2.2-.5.1-.7v-.2l-.1-1.3c0-.6 0-1-.2-1.5l-.6-1.3c-.1-.5-.3-1-.6-1.4l-2-2.4c-.9-.7-1.7-1.4-2.5-1.8l-.6-.4c-.8-.4-1.5-.9-2.5-.9l-1-.2-.5-.2-2.5-.7-2.3-.2c-.3 0-.6 0-.9-.2-.4 0-.8-.2-1.2 0a1 1 0 00-.3.4c-.1-.2-.2-.2-.4-.3-.4-.3-.8-.2-1.3-.2h-1.5c-.5 0-1 0-1.6.2l-.8.2h-.9c-.7-.2-1.4 0-2.1.2l-.5.1h-1l-.7.2h-.6l-2 .5-.8.2c-.7 0-1.4.3-2.1.4l-.7.2-.6.2c-.5.1-1 .2-1.5.6l-.8.2h-.4l-1.8.6-2.3.8c-1.3.4-2.5.7-3.7 1.2l-2 1a62 62 0 01-1 .4l-.8.4-1 .5c-1 .3-1.7.6-2.4 1.2l-1.6.8-.7.3-4.4 2.5-2 1-1.5 1h-.3l-2.6 1.8a69.7 69.7 0 01-1.9 1.3l-.9.5-1.3 1c.4-.2-2.5 2-3.5 3a64 64 0 01-2 1.9c-.3 0-.8-.2-1.2-.6-.5-.5-.8-1.2-.8-1.5.1-.9.3-1.6 1-2.2l1.1-.9a11.1 11.1 0 012-1.5l.8-.5.3-.2.1-.1c.6-.8 1.4-1.2 2.3-1.6l.3-.1.5-.4a13.4 13.4 0 011.5-1.1l.7-.5.8-.4h.3l1.2-.9a42 42 0 014.5-2.7l1-.5a62.9 62.9 0 014-2l1.7-.9c1.4-.7 2.9-1.5 4.4-2l1.9-.8a42.4 42.4 0 015.3-2l4-1.4c.6-.3 1.3-.4 2-.6.6 0 1.2-.2 1.8-.4 1-.3 1.8-.4 2.7-.5l.9-.2 1.2-.3h1.2l.2-.1c0-.2.1-.2.2-.2l.6-.2h1.7l2.5-.2a37.2 37.2 0 014.3-.1h.9l.4-.2 2 .4.4.1 1.7.1 1.7.1 1.1.3 2.3.5 1 .5.8.5 2.5 1h.1l.7.5c.5.1.8.5 1.2 1l.5.5.4.3c.2.3.4.6.7.7.7.5 1 1 1.3 1.6l.2.4.4.4.4.6.2.8.1.2c.5.8.7 1.7.9 2.6l.2 1.1v1s-.1.1 0 .2c.2 1.5-.2 3-.6 4.3l-.3.9-.3.8-.1.2-.1.1-.2.2c-.8 2.5-1 3-2.3 4.3l-.3.3-.1.3-.2.4c-.3.7-1 1.4-1.5 2l-1.2 1.4a23.5 23.5 0 01-4 4.3c-.4.6-.8.9-1.4 1.2l-1.1.9-.6.5-1.9 1.5-.7.6-.3.3c-.5.7-1.2 1.2-2 1.5l-.3.3-.1.1c-.7.4-1.3.7-1.9 1.2l-3 2.2-1 .8a86.5 86.5 0 01-2 1.1h-.2a3 3 0 01-.3.2h-.2c-.1.4-.4.7-.6.9l-.3.2-1.6.9-1.4.8c-1 .5-1.7 1-2.5 1.6l-.9.6-1 .4-.7.3.2.2 1-.2 2.2-.3 2.3-.3 1-.1c1.2-.2 2.4-.3 3.6-.2h.6c.7-.2 1.5-.2 2 .2.7-.3 1.3-.2 2-.1h.2l1.4.3 1 .2.6.1 1.5.3.7.3.2.1.1.1.3.1.2-.1 2-1.4 1.6-1c.7-.3 1.3-.8 1.9-1.2l.6-.5 2.2-1.4 1.9-1.1 2.7-1.7.4-.2a3 3 0 011.4-.6c0-.2.3-.4.5-.7h.8c.8-.6 1.6-1 2.7-1.3.1-.3.4-.5.6-.6.3-.2.7-.3 1.2-.3.6-.5 1.2-.6 1.8-.6h.4c.6-.1 1.2.1 1.5.5a1.6 1.6 0 01.2 1.7v.1c-1 .8-3 1.6-4.2 2.1h-.2l-.4.2-1.6.7-.8.4-.7.5a101 101 0 01-3 1.8l-2.6 1.3-1.5 1-1.6 1.1-2.4 1.6-.9.7-1.7 1h-.1c0 .3.3.5.5.6a2.8 2.8 0 011 1.6l.4.8c.3.6.4 1 .4 1.6l.1.6c0 1.2 0 2.4-.3 3.5zm-19.1 14.7c.4-.6.8-.8 1.3-1l.5-.4c.6-.2 1-.5 1.6-.9l.6-.4c.8-.3 1.6-1 2.3-1.5a49.4 49.4 0 013.7-2.8l.1-.3 2.2-2.6 2.5-3 .3-.6.2-.7c.3-.9.7-1.8.8-2.6.2-1.7-.6-3-1.8-4.3h-.2l-.7.6-.6.4c-.6.3-1.3.6-1.7 1a5 5 0 01-1.4 1.2c-.5.3-1 .6-1.4 1.3l-.1.1-.3.2h-.2a8 8 0 01-.5.3l-.7.5c-.4.8-1 1.3-1.7 1.7l-.7.4-.7.7a7 7 0 01-.7.6l-.8.6c-.7 1-1.6 1.8-2.9 2.5l-.3.4-.4.4-.2.3-.4.6-.9.8a4 4 0 01-.3.3l-.2.3a12 12 0 00-1.6 1.9l-.4.3-.7.7c-.4.5-.8.9-1.1 1.5l-1 1.5-.7 1.4c-.2.4-.2.7-.2 1v.6h2.2l2.2-1c.3 0 .5-.2.8-.3l1.5-.7a37.3 37.3 0 012.7-1zm72.1-3.3s-.2.2-.1.3v1.3c-.3.3-.6.5-1 .6-.3.2-.9.1-1.3-.1a2 2 0 01-.6-.5c-.2-.2-.3-.4-.3-.7v-1.4c-.1-.5-.2-1-.1-1.4l.3-1.6-.4-.3V73l.8-6.5 1.6-12.8-1.4 1.4a27.3 27.3 0 01-3.1 2.2c-.4.2-.8.2-1.3.3h-.3l-.3.4-.2.2h-.2c-1.6 0-3.1-.2-4.6-1-.2 0-.5-.4-.8-.7l-.6-.6a7.2 7.2 0 01-1.6-2.4l-.2-.5a14.4 14.4 0 01-.6-3.4v-.1l-.4.5c-.7 1-1.7 1.8-2.6 2.5l-.4.4c-.3 0-.5.2-.7.4-.5.4-1 .8-1.8.9h-.2a3 3 0 01-.3.3c-1 .3-2.1.1-3-.4a2.8 2.8 0 01-1.4-2.3l-.3-1.6-.2-1.4-1.3 1.7-.9 1c0 .2-.2.2-.4.3l-.2.1.1.4v.5l-.3.2-1.4 1.1c-.9.8-1.8 1.6-3 2-.5.2-1 .1-1.7 0h-.8-.1-.2c-.3-.2-.9-.5-1.2-1V55c-.5-.6-1-1.2-.7-2.2l.1-1c0-.6.1-1.4.3-2l.7-2 .3-.7a66.3 66.3 0 012.9-5.1l.2-.3.3-.4.7-.9.5-.5c.2-.4.5-.7 1-1l.4-.3.5-.4.4-.2c.7-.8 1.6-1 2.6-1h.2c.8-.1 1.4 0 2 .4.6.4 1 1 1.5 1.7l.2.3.2.2.1.2a1.8 1.8 0 01.5.5v.1a8 8 0 010 2.5v7.9l.1.3h.5c.7-.3 1.5-.7 2-1.3l.7-.6.5-.3.7-.8 1.2-1 1.9-1.8v-.3l.8-2.6V42l-.1-.3.1-.8v-.2c0-.7.1-1.3.4-1.8l.1-.4.1-.1v-.2l.2-.4.3-3.2c0-.3.2-.5.3-.7l.2-.4c.2-.2.2-.5.3-.7 0-.3 0-.7.2-1l.5-1.6a34.3 34.3 0 01.7-2l.2-.4v-.1l-.6-.7.8-.5c.6-.3.6-.9.7-1.4.1-.5.2-1 .4-1.3l.2-.5c.3-.4.5-.7.6-1.1.3-1.1.7-2.1 1.2-3.1l.7-1.4.7-1.4a53.9 53.9 0 011.2-1.8v-.6l1-1.6.5-.7.6-1.1.7-1.2.3-.4c.6-1 1.2-1.8 2-2.6l.2-.2c.2-.3.5-.6 1-.7h1.9c.6.2 1.3.4 1.6.9l.4.5.4.5.3.7-.1.8.3.6c.2.5.1 1 0 1.4v.7c0 .8-.4 1.6-.7 2.4l-.2.4V15l-.5 1.6-.2.4-.3.6-.2.5-.4 1.3c-.3 1.1-.6 2.2-1.2 3.3-.6.9-1 1.8-1.4 2.8a40.1 40.1 0 01-1 2.2l-.5 1.1-.4 1.1a11.4 11.4 0 01-2.2 3.8c0 .7-.3 1.4-.8 2l-.3.4a26.5 26.5 0 01-2.6 4l-1.1 1.6-1.1 1.2c-.6.5-1.1 1-1.4 1.8a.9.9 0 01-.6.7 1 1 0 00-.4.5v1.8c-.3.8-.1 1.6 0 2.4V50.6c.3 1 .7 2.2 1.2 3.2l.7.6c.4.2 1 .3 1.3.3 1.2 0 2.2-.6 3.1-1l.2-.1.2-.1.1-.2.6-.5.6-.4.6-.3 1.6-1.9a51.6 51.6 0 011.4-1.6l.7-.8.2-.6.3-.8.2-.7.2-.6a5 5 0 00.3-1.9c0-.4.2-.9.4-1.3l.2-.4.1-.4v-.4c.2-1 .5-2 1-3l.5-2 .4-1.3.6-1.9 1-2.6.8-2 .5-1.6c.8-1.2 1.1-2 1.5-3l1-2.4.8-1.4a37.8 37.8 0 012.5-4.5l.6-.8.6-1a10.5 10.5 0 011.7-2.6l.6-.6.4-.5c.3-.5.7-1 1.2-1.3a4 4 0 011.8-.7l.7-.1h.5l.3-.2.2.3a4.4 4.4 0 011.4 4l-.1 1.2c0 .6 0 1.1-.3 1.6v.8c-.1.7-.2 1.3-.7 1.9v.2c.2 1.2-.2 1.9-.8 2.6.1.7 0 1.2-.3 1.8l-.1.3-.7 1.6a17 17 0 01-1.6 3.7l-.4.6-.3.8-.4.9-1.6 2.8c-.2.7-.5 1.1-.8 1.6l-.4.5-.2.3-.6 1.1-.6 1c-.2.6-.7 1.1-1 1.6l-.4.4a44.5 44.5 0 01-4.9 6.7l-.6.7-1.5 2.2-.7.7-.1.1v.3a6 6 0 01-.3 1.7v.5l-.2 1.4a24.1 24.1 0 01-.3 2.3l-.2 1.6-.2 2c0 1.1-.2 2.4-.6 3.4v.8l-.1.4.1.5-.1.8v.3l-.1.3v.6c0 .3-.1.7-.3 1v1c-.2.8-.2 1.6-.2 2.3a23.5 23.5 0 01-.5 4.5l-.2.9.1.3a10.2 10.2 0 01.2.5v.3zm.4-67l-1.5 2.2a65.7 65.7 0 01-2 3.3c-.4.9-.9 1.6-1.5 2.4l-.1.5-.3.8a6 6 0 00-.6 1.2l-1 1.8-.5 1-.1.5-.1.4c0 .4-.2.8-.4 1.2-.3.3-.4.6-.6 1l-.3.8c.1.6-.1 1.1-.4 1.6l-.2.3v.1l-.2.7v.1l-.7 2-.7 2v1.3l-.6 1.8-.6 2.1.2.2a17.5 17.5 0 01.4-.5l.8-1 1.1-1.6c.4-.4.6-.8.9-1.3a12 12 0 011.1-2c.3-.3.7-.7.8-1.3l1.2-2.4.7-1.2.3-.9c.2-.6.3-1.1.7-1.6.7-1.3 1.4-2.6 1.7-4 .1-.6.4-1.2.6-1.7l.2-.2v-.2l.4-.5.5-1.2c0-.7.3-1.3.6-1.9.2-.5.5-1.1.5-1.8l.2-1.3c.1-.3.3-.6.3-1v-.8-.9c0-.2-.1-.5-.3-.7a3 3 0 00-.5.7zM243.8 51V51a18.8 18.8 0 011-1.1l1.4-1.5.1-.2c.4-.6.7-1 1.2-1.4 0-.6.5-1 1-1.4l.3-.4.5-.4.5-.5.4-1.6V42a7 7 0 01-.4-1c0-.2-.2-.4-.3-.5l-.6.1-.5.4-.7.5c-.7.2-1 .8-1.5 1.3l-.4.5-.3.5-.5.7-1 1.5c-.2.6-.6 1.1-.9 1.7l-.2.7-.3.8-.3.6-.2 1-.1 1.7.7-.5c.5-.4 1.1-.8 1.1-1zm51.4-32V19v-.3l.1-.4V18l.4-1.1c0-.4.1-.7.3-1.1V15c0-.5 0-1 .3-1.5.4-.4.3-1 .2-1.4v-.6l-.4.4-1 1.4c-.8 1-1.6 1.9-2 3.2l-1 1.6-.7 1-.7 1.5-.5.8-.4.7c-.5.8-1 1.8-1.3 2.8l-1.2 2.7-1.5 3.7c0 .3-.2.7-.4 1l-.4 1-.4 1.6a18.9 18.9 0 01-.7 2.2l-.1.2-.3.7-.2.8-.5 2.2a272.4 272.4 0 010 .2l1.5-2 1.7-2.5 1.8-2.6 1.7-3.1.7-.8.5-1a30.5 30.5 0 01.9-1.6c.2-.3.5-.5.5-.8 0-.7.2-1.1.5-1.6.2-.4.4-.7.4-1.2s.3-1 .7-1.6l.1-.2.2-.2.3-1a4 4 0 011-2z" fill="#2055CD" fill-rule="nonzero"/></svg>